<svg id="Capa_1" enable-background="new 0 0 512.02 512.02" height="512" viewBox="0 0 512.02 512.02" width="512" xmlns="http://www.w3.org/2000/svg"><path d="m467.294 15c0-5.005-2.497-9.681-6.656-12.465-4.16-2.785-9.434-3.311-14.062-1.402l-279.528 115.25c-5.617 2.315-9.282 7.791-9.282 13.867v99.011c-.001.046 0 .093 0 .139v155.506c-5.418-3.413-11.374-6.034-17.735-7.738-16.613-4.451-33.967-2.167-48.862 6.434l-14.259 8.231c-30.749 17.753-41.322 57.213-23.569 87.962 8.6 14.895 22.486 25.551 39.1 30.003 5.548 1.486 11.177 2.222 16.77 2.222 11.157 0 22.17-2.927 32.091-8.655l14.259-8.23c0-.001.001-.001.001-.001 18.073-10.435 29.165-28.371 31.643-47.627.356-1.282.562-208.019.562-208.019l249.528-102.889v133.058c-5.418-3.413-11.374-6.034-17.735-7.738-16.614-4.452-33.967-2.167-48.862 6.433l-14.259 8.232c-30.749 17.753-41.322 57.213-23.569 87.963 8.6 14.896 22.485 25.551 39.1 30.002 5.547 1.486 11.176 2.222 16.77 2.222 11.157 0 22.171-2.927 32.092-8.655l14.258-8.232c20.946-12.093 32.518-34.259 32.164-56.883.013-.272.04-308.001.04-308.001z"/></svg>